# xmcd CD database file
#
# Track frame offsets:
#	150
#	41571
#	72788
#	99130
#	123740
#	159933
#	183724
#	197042
#	218411
#	236058
#	253821
#
# Disc length: 3613 seconds
#
# Revision: 0
# Processed by: cddbd v1.5.2PL0 Copyright (c) Steve Scherf et al.
# Submitted via: CDex 1.51
#
DISCID=960e1b0b
DTITLE=Peter Makena - Magnificence
DYEAR=2010
DGENRE=New Age
TTITLE0=Magnificence
TTITLE1=Fly High
TTITLE2=Saranam Gacchami
TTITLE3=Holy Ground
TTITLE4=Hare OM
TTITLE5=Draw Near
TTITLE6=Mystery Veil
TTITLE7=The River
TTITLE8=The Way You Are
TTITLE9=Kayla
TTITLE10=Thank You
EXTD=YEAR: 2010
EXTT0=
EXTT1=
EXTT2=
EXTT3=
EXTT4=
EXTT5=
EXTT6=
EXTT7=
EXTT8=
EXTT9=
EXTT10=
PLAYORDER=
